# xmcd
#
# Track frame offsets: 
#        150
#        33147
#        56674
#        73098
#        87060
#        109016
#        127680
#        147035
#        165104
#        180697
#
# Disc length: 2712 seconds
#
# Revision: 0
# Processed by: cddbd v1.5.2PL0 Copyright (c) Steve Scherf et al.
# Submitted via: ExactAudioCopy v1.0b4
#
DISCID=730a960a
DTITLE=Dana Gillespie - Weren't Born A Man
DYEAR=1973
DGENRE=Blues
TTITLE0=Stardom Road. Parts I and II
TTITLE1=What Memories We Make
TTITLE2=Dizzy Heights
TTITLE3=Andy Warhol
TTITLE4=Backed A Loser
TTITLE5=Weren't Born A Man
TTITLE6=Mother Don't Be Frightened
TTITLE7=All Cut Up On You
TTITLE8=Eternal Showman
TTITLE9=All Gone
EXTD=
EXTT0=
EXTT1=
EXTT2=
EXTT3=
EXTT4=
EXTT5=
EXTT6=
EXTT7=
EXTT8=
EXTT9=
PLAYORDER=
